<?xml version="1.0" standalone="no"?>
<!DOCTYPE svg PUBLIC "-//W3C//DTD SVG 20010904//EN"
 "http://www.w3.org/TR/2001/REC-SVG-20010904/DTD/svg10.dtd">
<svg version="1.0" xmlns="http://www.w3.org/2000/svg"
 width="360.000000pt" height="360.000000pt" viewBox="0 0 360.000000 360.000000"
 preserveAspectRatio="xMidYMid meet">
<metadata>
Created by potrace 1.14, written by Peter Selinger 2001-2017
</metadata>
<g transform="translate(0.000000,360.000000) scale(0.100000,-0.100000)"
fill="#000000" stroke="none">
<path d="M482 3574 c-107 -23 -207 -78 -287 -158 -81 -80 -116 -135 -152 -238
-50 -143 -39 -296 32 -443 97 -202 293 -330 517 -339 51 -2 137 11 201 30 125
36 287 175 345 296 161 335 3 717 -344 834 -94 31 -219 39 -312 18z"/>
<path d="M2910 3583 c-185 -28 -363 -154 -442 -313 -51 -101 -68 -173 -73
-312 -8 -187 -24 -282 -70 -405 -85 -225 -254 -345 -504 -358 -137 -6 -209
-34 -293 -113 -82 -77 -115 -157 -123 -302 -13 -230 -119 -397 -308 -484 -39
-18 -165 -63 -180 -64 -4 0 -24 -3 -45 -6 -98 -15 -135 -18 -236 -21 -137 -5
-190 -17 -294 -67 -194 -95 -321 -293 -327 -510 -5 -175 52 -318 174 -438 319
-315 846 -189 985 236 21 64 25 94 31 223 6 126 10 168 29 257 71 328 256 493
561 498 263 5 450 -129 540 -387 18 -53 32 -97 30 -97 -1 0 1 -18 6 -39 13
-59 19 -117 24 -236 5 -143 19 -205 67 -302 154 -317 557 -426 859 -233 75 49
163 150 204 234 166 344 -22 748 -390 841 -33 8 -114 18 -180 20 -66 3 -133 7
-150 9 -107 15 -138 22 -224 52 -249 87 -378 259 -385 512 -8 323 188 540 539
596 17 2 48 7 70 11 22 3 92 8 155 10 63 3 142 11 175 20 370 94 555 497 389
842 -67 141 -220 269 -369 308 -59 16 -195 26 -245 18z"/>
<path d="M1226 2583 c-64 -19 -136 -91 -155 -153 -41 -137 32 -277 164 -316
159 -46 315 71 315 236 0 169 -159 283 -324 233z"/>
</g>
</svg>
